<svg id="New_VF_Logo_AW" xmlns="http://www.w3.org/2000/svg" viewBox="0 0 1177.9 311.8">
  <style>
    .st0{fill:#e60000}
  </style>
  <g id="XMLID_1_">
    <circle id="XMLID_689_" class="st0" cx="155.9" cy="155.9" r="141.7"/>
    <path id="XMLID_688_" d="M157 234.9c-38.9.1-79.5-33.1-79.6-86.5A120 120 0 0 1 120.7 59a141.3 141.3 0 0 1 85.8-32.4c3.8 0 7.8.3 10.2 1.1a58.8 58.8 0 0 0-46 58.9c43.2 10.5 62.7 36.6 62.9 72.6a76 76 0 0 1-76.6 75.7z" fill="#fff"/>
  </g>
  <g id="XMLID_763_">
    <path id="XMLID_686_" class="st0" d="M389.2 214.6l-43.3-103.4h28.3l27 68.7 26.2-68.7h27l-42.1 103.4h-23.1z"/>
    <path id="XMLID_683_" class="st0" d="M556 162.5a64 64 0 0 1-3.1 19.8 55.3 55.3 0 0 1-9.2 17.5 45.9 45.9 0 0 1-37.2 17.1 44.9 44.9 0 0 1-37.2-17.1c-4.1-5.2-7.2-11-9.2-17.5a64 64 0 0 1 0-39.5 54.3 54.3 0 0 1 9.2-17.3c4.1-5.1 9.2-9.2 15.4-12.2 6.2-3.1 13.5-4.6 21.8-4.6s15.5 1.5 21.7 4.6a47.6 47.6 0 0 1 24.7 29.5c2.1 6.4 3.1 13 3.1 19.7zm-26.2-.1c0-4.3-.5-8.4-1.5-12.3-1-3.9-2.5-7.2-4.5-10s-4.4-5-7.3-6.7a20.4 20.4 0 0 0-10.1-2.5c-3.9 0-7.2.8-10.1 2.5a22.2 22.2 0 0 0-7.3 6.7c-2 2.8-3.5 6.1-4.5 10a49.3 49.3 0 0 0 0 24.7c1 3.8 2.5 7.1 4.4 10 1.9 2.9 4.4 5.1 7.3 6.8 2.9 1.6 6.3 2.5 10.2 2.5 3.9 0 7.2-.8 10.1-2.5 2.9-1.6 5.3-3.9 7.3-6.8s3.5-6.2 4.5-10 1.5-8 1.5-12.4z"/>
    <path id="XMLID_680_" class="st0" d="M638.1 214.6l-1.1-7.9a33.5 33.5 0 0 1-9.6 7.2 38.2 38.2 0 0 1-32.9-1.4c-5.4-3-10-7-13.7-12-3.7-5-6.5-10.8-8.4-17.4a73.8 73.8 0 0 1-2.9-20.6c0-6.7 1-13.3 3-19.7 2-6.4 5-12.2 9.1-17.3a44.7 44.7 0 0 1 36.9-16.8c5.4 0 11.3 1 17.5 3V71.5h26.6v143.1h-24.5zm-2.2-80.6c-5.1-2-9.9-3-14.3-3-4.6 0-8.5.9-11.7 2.6-3.3 1.7-6 4-8.1 7s-3.7 6.2-4.8 9.9a39 39 0 0 0-1.6 11.3c0 4.3.5 8.4 1.4 12.4s2.3 7.4 4.3 10.3c1.9 2.9 4.3 5.3 7.3 7.1 2.9 1.8 6.4 2.7 10.3 2.7 3.3 0 6.6-.9 10-2.7 3.4-1.8 5.8-3.9 7.3-6.4V134z"/>
    <path id="XMLID_672_" class="st0" d="M739.5 214.5l-1.1-7.7a29 29 0 0 1-11 7.5 38.7 38.7 0 0 1-27.4.4 34 34 0 0 1-10.9-6.4 32.5 32.5 0 0 1-10.5-24.1 29.3 29.3 0 0 1 11.2-23.6c3.4-2.7 7.4-4.9 11.8-6.7s9.1-3 14-3.9c3.4-.7 7.2-1.2 11.3-1.6l10.2-1V146c0-5.7-1.5-9.8-4.4-12.2-2.9-2.4-7-3.6-12.2-3.6a34.3 34.3 0 0 0-15.9 3.8 48.4 48.4 0 0 0-9.7 6.1l-8.8-18.7a69.3 69.3 0 0 1 25.3-11.2c4.2-.9 8.8-1.4 13.6-1.4 5.7 0 10.9.8 15.7 2.3a31.7 31.7 0 0 1 20.2 19.3 49.7 49.7 0 0 1 2.9 17.9v66.5h-24.3zm-2.1-48.4a94.8 94.8 0 0 0-17.5 2.2c-5.8 1.1-9.8 3.1-12 5.9a14.4 14.4 0 0 0-3.3 9.1c0 3.4 1.3 6.2 3.8 8.3 2.5 2.1 6.1 3.1 10.7 3.1a28.3 28.3 0 0 0 18.3-7.5v-21.1z"/>
    <path id="XMLID_670_" class="st0" d="M846 95.1l-5-1.8c-2.5-.8-5.8-1.2-10-1.2-3.7 0-6.8 1.1-9.3 3.3-2.5 2.2-3.8 5.8-3.8 10.8v4.9h22.3v21.5h-22.1v82h-26.6v-82h-13.7v-21.5h13.7v-5.6c0-6.7.9-12.4 2.6-17.1a28.2 28.2 0 0 1 18-17.8 59.8 59.8 0 0 1 36.9 2.3l-3 22.2z"/>
    <path id="XMLID_667_" class="st0" d="M944.7 162.5a64 64 0 0 1-3.1 19.8 55.3 55.3 0 0 1-9.2 17.5 45.9 45.9 0 0 1-37.2 17.1 44.9 44.9 0 0 1-37.2-17.1c-4.1-5.2-7.2-11-9.2-17.5a64 64 0 0 1 0-39.5 54.3 54.3 0 0 1 9.2-17.3c4.1-5.1 9.2-9.2 15.4-12.2 6.2-3.1 13.5-4.6 21.8-4.6s15.5 1.5 21.7 4.6a47.6 47.6 0 0 1 24.7 29.5 66 66 0 0 1 3.1 19.7zm-26.2-.1c0-4.3-.5-8.4-1.5-12.3-1-3.9-2.5-7.2-4.5-10s-4.4-5-7.3-6.7a20.4 20.4 0 0 0-10.1-2.5c-3.9 0-7.2.8-10.1 2.5a22.2 22.2 0 0 0-7.3 6.7c-2 2.8-3.5 6.1-4.5 10a49.3 49.3 0 0 0 0 24.7c1 3.8 2.5 7.1 4.4 10 1.9 2.9 4.4 5.1 7.3 6.8 2.9 1.6 6.3 2.5 10.2 2.5 3.9 0 7.2-.8 10.1-2.5 2.9-1.6 5.3-3.9 7.3-6.8s3.5-6.2 4.5-10 1.5-8 1.5-12.4z"/>
    <path id="XMLID_665_" class="st0" d="M1027.3 214.6v-59c0-7.9-1.6-13.9-4.9-18.2a16.3 16.3 0 0 0-13.7-6.4c-4.1 0-8 1.1-11.5 3.2a47 47 0 0 0-9.1 7.1v73.4h-26.6V111.2h24.2l1.3 8.2c4.1-3.4 8.8-6.1 14.1-7.9a45.8 45.8 0 0 1 30.8-.3c4.6 1.6 8.5 4.3 11.8 7.8 3.3 3.6 5.8 8.2 7.6 13.9a69 69 0 0 1 2.7 20.6v61.1h-26.7z"/>
    <path id="XMLID_662_" class="st0" d="M1096.5 169.6c.6 8.7 3.3 15 8.2 18.9a29.5 29.5 0 0 0 19 5.8 46.1 46.1 0 0 0 18.5-3.5c2.4-1 4.5-2 6.2-3 1.7-1 3-1.9 3.9-2.8l7.1 21.7a52.9 52.9 0 0 1-24.7 9.1c-4.4.8-9.3 1.2-14.6 1.2-6.7 0-13.1-1.1-19.2-3.2a42.5 42.5 0 0 1-16-10A48.4 48.4 0 0 1 1074 187a64 64 0 0 1-4.1-24c0-8.7 1.2-16.4 3.8-23.2a47.6 47.6 0 0 1 10.3-16.9c4.4-4.6 9.4-8.1 15.2-10.5a50.8 50.8 0 0 1 36.8-.4 37.1 37.1 0 0 1 14.5 10 48.1 48.1 0 0 1 9.7 17.5 81 81 0 0 1 3.5 25.5v4.7h-67.2zm40.1-19.1c-.3-3.6-1-6.7-2.3-9.3a19.3 19.3 0 0 0-4.5-6.4 17.7 17.7 0 0 0-12.2-4.8c-4.6 0-9 1.7-13.2 5.1a21.7 21.7 0 0 0-7.3 15.4h39.5z"/>
  </g>
</svg>
